<svg xmlns="http://www.w3.org/2000/svg" version="1.1" x="0" y="0" width="182" height="109" viewBox="0 0 182 109" xml:space="preserve"><style type="text/css">
	.st0{fill:#263238;}
	.st1{fill:#455A64;}
</style><path class="st1" d="M48.8 2.6l-4.6 2.9c0 0 2.1 4.9 2.4 5.4 0.5 1.9 0.7 3.7 0.7 5.4 0 3.5-1 6.5-2.8 8.7 -2 2.4-5 3.4-8.8 3.1 -8.7-0.5-16.1 0.4-23.4 1.2l-7.8 0.8 -0.2 5.5c8.2 1.3 14.8 5 17.3 9.6 1.6 2.9 1.5 6.3-0.1 9.8 -1.7 3.6-3.8 7-5.8 10.3 -3.4 5.5-6.9 11.2-8.5 17.9l5.1 2c3.3-6.1 11.1-11 16.9-10.7 2.8 0.1 4.8 1.5 5.9 4.1 3.6 8.3 8.6 15.2 13.5 21.8l4.4 6.1 4.9-2.4c-2.2-6.8-3.7-16.4-0.4-21 1.3-1.9 3.4-2.8 6.2-2.8l7.7 0.3c8.1 0.4 16.4 0.8 24.9-1.9 0 0 0 0 0.1 0l0 0c0.1 0 0.3 0 0.4-0.1l-1.3-5.3c-6.2 1-12.7-3.4-17-8.5 0.3-0.1 0.4-0.2 0.5-0.3 1.1-0.1 100.4-6 100.4-6l0-5.5c0 0-41.7-1.8-69.7-3.1 4.3-0.7 10.6-1.7 10.6-1.7l-0.3-5.5c0 0-24.6-0.8-30.8-1.1 1-2.3 1.9-4.7 1.9-4.7 1.2-3.3 2.3-6.4 4-9.2l-4.7-2.9c-3.9 6.1-9.9 9.7-15.7 9.4 -4.4-0.2-8.1-2.7-10.4-7.2l-3.3-6.1C57.5 14.8 54 8.3 48.8 2.6z"/><path class="st0" d="M24 56.2c-4.7 10-11.6 17.5-14 27.6 5.7-10.4 22.8-17.8 27.8-6.4 4.6 10.5 11.5 18.8 17.6 27.5 -3.6-10.9-5-27.2 8.5-27.4 10.2 0.1 21.3 2.1 32.2-1.5 -8.1 1.3-16.2-4.5-20.9-10.9 0.3-0.7 0.6-1.4 0.8-2.1l2.4-1.2 100.9-6 -96.6-4.3 37.2-6 -34.8-1.2c2.9-5.7 4.4-12.3 7.6-17.9 -8.1 12.6-24.1 15-30.8 2.1 -4.7-8.2-8.4-16.7-15-24.1 0.8 1.9 1.7 3.8 2.5 5.7 3.1 12.3-3 21.7-13.7 20.7 -11.6-0.6-21 1.2-30.8 2.1C18.2 35 29.8 43.5 24 56.2zM46.5 54c0-3.4 2.8-6.2 6.2-6.2s6.2 2.8 6.2 6.2c0 3.4-2.8 6.2-6.2 6.2S46.5 57.4 46.5 54z"/></svg>